<?xml version="1.0" standalone="no"?>
<!DOCTYPE svg PUBLIC "-//W3C//DTD SVG 20010904//EN"
 "http://www.w3.org/TR/2001/REC-SVG-20010904/DTD/svg10.dtd">
<svg version="1.0" xmlns="http://www.w3.org/2000/svg"
 width="357.000000pt" height="461.000000pt" viewBox="0 0 357.000000 461.000000"
 preserveAspectRatio="xMidYMid meet">

<g transform="translate(0.000000,461.000000) scale(0.100000,-0.100000)"
fill="#000000" stroke="none">
<path d="M447 4162 l-437 -437 0 -1420 0 -1420 438 -438 437 -437 900 0 900 0
438 438 437 437 0 1420 0 1420 -438 438 -437 437 -900 0 -900 0 -438 -438z
m2595 -79 l408 -408 0 -1375 0 -1375 -403 -403 -402 -402 -855 0 -855 0 -407
407 -408 408 0 1370 0 1370 407 407 408 408 850 0 850 0 407 -407z"/>
<path d="M627 3982 l-367 -367 0 -1315 0 -1315 363 -363 362 -362 800 0 800 0
363 363 362 362 0 1320 0 1320 -363 363 -362 362 -795 0 -795 0 -368 -368z
m1794 -543 l149 -152 0 -986 0 -986 -148 -148 -147 -147 -485 0 -485 0 -147
147 -148 148 0 990 0 990 147 147 148 148 483 0 484 0 149 -151z"/>
<path d="M1253 3344 l-103 -104 0 -938 0 -937 108 -108 107 -107 420 0 420 0
113 113 112 112 0 930 0 930 -108 108 -107 107 -430 -1 -430 -1 -102 -104z
m989 -81 l78 -78 0 -883 0 -884 -72 -74 -71 -74 -386 0 -386 0 -72 72 -73 72
0 891 0 890 72 72 72 73 381 0 380 0 77 -77z"/>
</g>
</svg>
